<svg width="172" height="14" viewBox="0 0 172 14" fill="none" xmlns="http://www.w3.org/2000/svg">
<path d="M6.924 10.132V11H0.246V1.06H6.798V1.928H1.226V5.512H6.084V6.338H1.226V10.132H6.924ZM8.89516 7.626V6.744H12.9832V7.626H8.89516ZM26.4914 11H25.5394V6.926C25.5394 6.07667 25.4041 5.45133 25.1334 5.05C24.8627 4.64867 24.4614 4.448 23.9294 4.448C23.6494 4.448 23.3834 4.49933 23.1314 4.602C22.8887 4.70467 22.6601 4.84933 22.4454 5.036C22.2401 5.22267 22.0581 5.44667 21.8994 5.708C21.7407 5.96 21.6194 6.24 21.5354 6.548V11H20.5834V6.926C20.5834 6.058 20.4527 5.428 20.1914 5.036C19.9301 4.644 19.5287 4.448 18.9874 4.448C18.4367 4.448 17.9467 4.63933 17.5174 5.022C17.0881 5.40467 16.7801 5.90867 16.5934 6.534V11H15.6414V3.706H16.5094V5.358C16.8081 4.798 17.2001 4.364 17.6854 4.056C18.1707 3.73867 18.7074 3.58 19.2954 3.58C19.9114 3.58 20.4014 3.75267 20.7654 4.098C21.1387 4.44333 21.3674 4.896 21.4514 5.456C22.1327 4.20533 23.0707 3.58 24.2654 3.58C24.6761 3.58 25.0214 3.65467 25.3014 3.804C25.5907 3.95333 25.8194 4.168 25.9874 4.448C26.1647 4.71867 26.2907 5.05 26.3654 5.442C26.4494 5.82467 26.4914 6.254 26.4914 6.73V11ZM31.0406 11.14C30.6953 11.14 30.3733 11.084 30.0746 10.972C29.7853 10.8507 29.5286 10.6873 29.3046 10.482C29.09 10.2767 28.922 10.0387 28.8006 9.768C28.6793 9.488 28.6186 9.18933 28.6186 8.872C28.6186 8.55467 28.6933 8.26067 28.8426 7.99C28.992 7.71933 29.202 7.486 29.4726 7.29C29.7433 7.094 30.0653 6.94467 30.4386 6.842C30.812 6.73 31.2226 6.674 31.6706 6.674C32.044 6.674 32.422 6.70667 32.8046 6.772C33.1873 6.83733 33.528 6.93067 33.8266 7.052V6.394C33.8266 5.75 33.6446 5.24133 33.2806 4.868C32.9166 4.48533 32.4126 4.294 31.7686 4.294C31.3953 4.294 31.0126 4.36867 30.6206 4.518C30.2286 4.66733 29.832 4.882 29.4306 5.162L29.0946 4.532C30.0373 3.89733 30.952 3.58 31.8386 3.58C32.7533 3.58 33.472 3.83667 33.9946 4.35C34.5173 4.86333 34.7786 5.57267 34.7786 6.478V9.768C34.7786 10.0293 34.8953 10.16 35.1286 10.16V11C34.97 11.028 34.8486 11.042 34.7646 11.042C34.522 11.042 34.3306 10.9813 34.1906 10.86C34.06 10.7387 33.99 10.5707 33.9806 10.356L33.9526 9.782C33.6166 10.2207 33.192 10.5567 32.6786 10.79C32.1746 11.0233 31.6286 11.14 31.0406 11.14ZM31.2646 10.412C31.7593 10.412 32.212 10.3187 32.6226 10.132C33.0426 9.94533 33.36 9.698 33.5746 9.39C33.6586 9.306 33.7193 9.21733 33.7566 9.124C33.8033 9.02133 33.8266 8.928 33.8266 8.844V7.654C33.5093 7.53267 33.178 7.43933 32.8326 7.374C32.4966 7.30867 32.1513 7.276 31.7966 7.276C31.1246 7.276 30.5786 7.416 30.1586 7.696C29.7386 7.976 29.5286 8.34467 29.5286 8.802C29.5286 9.026 29.5706 9.236 29.6546 9.432C29.748 9.628 29.8693 9.80067 30.0186 9.95C30.1773 10.09 30.364 10.202 30.5786 10.286C30.7933 10.37 31.022 10.412 31.2646 10.412ZM37.5355 11V3.706H38.4875V11H37.5355ZM37.5355 2.18V0.78H38.4875V2.18H37.5355ZM41.3264 0.78H42.2784V9.348C42.2784 9.61867 42.353 9.83333 42.5024 9.992C42.6517 10.1413 42.8617 10.216 43.1324 10.216C43.235 10.216 43.3564 10.202 43.4964 10.174C43.6364 10.146 43.767 10.1087 43.8884 10.062L44.0564 10.832C43.879 10.9067 43.6597 10.9673 43.3984 11.014C43.1464 11.0607 42.927 11.084 42.7404 11.084C42.3017 11.084 41.9564 10.9627 41.7044 10.72C41.4524 10.468 41.3264 10.118 41.3264 9.67V0.78ZM45.6588 5.12V3.748H46.4708V5.12H45.6588ZM45.6588 11V9.628H46.4708V11H45.6588Z" fill="white"/>
<path d="M55.1839 11L52.4819 3.664H54.4139L56.2759 9.474L58.1519 3.664H59.9159L57.2139 11H55.1839ZM61.5935 11V3.664H63.4695V11H61.5935ZM61.5935 2.642V0.78H63.4695V2.642H61.5935ZM70.2578 11.14C69.6791 11.14 69.1751 11.014 68.7458 10.762C68.3165 10.5007 67.9805 10.1507 67.7378 9.712V13.982H65.8618V3.664H67.4998V4.924C67.7705 4.49467 68.1205 4.15867 68.5498 3.916C68.9791 3.664 69.4738 3.538 70.0338 3.538C70.5285 3.538 70.9858 3.64067 71.4058 3.846C71.8258 4.042 72.1851 4.31267 72.4838 4.658C72.7918 4.994 73.0298 5.39533 73.1978 5.862C73.3751 6.31933 73.4638 6.80467 73.4638 7.318C73.4638 7.85 73.3845 8.34933 73.2258 8.816C73.0671 9.28267 72.8431 9.68867 72.5538 10.034C72.2738 10.3793 71.9378 10.65 71.5458 10.846C71.1538 11.042 70.7245 11.14 70.2578 11.14ZM69.6278 9.544C69.9078 9.544 70.1645 9.48333 70.3978 9.362C70.6405 9.24067 70.8458 9.07733 71.0138 8.872C71.1818 8.66667 71.3125 8.42867 71.4058 8.158C71.4991 7.88733 71.5458 7.60733 71.5458 7.318C71.5458 7.01 71.4945 6.72533 71.3918 6.464C71.2891 6.19333 71.1445 5.96 70.9578 5.764C70.7805 5.568 70.5658 5.414 70.3138 5.302C70.0711 5.19 69.8051 5.134 69.5158 5.134C69.3385 5.134 69.1565 5.16667 68.9698 5.232C68.7831 5.288 68.6105 5.372 68.4518 5.484C68.2931 5.596 68.1485 5.72667 68.0178 5.876C67.8965 6.02533 67.8031 6.18867 67.7378 6.366V8.088C67.9058 8.508 68.1625 8.858 68.5078 9.138C68.8531 9.40867 69.2265 9.544 69.6278 9.544ZM80.4889 2.558C81.1702 2.558 81.8235 2.67467 82.4489 2.908C83.0835 3.14133 83.6435 3.482 84.1289 3.93C84.6142 4.378 84.9969 4.93333 85.2769 5.596C85.5662 6.25867 85.7109 7.024 85.7109 7.892C85.7109 8.02267 85.7015 8.2 85.6829 8.424C85.6735 8.63867 85.6455 8.86733 85.5989 9.11C85.5522 9.35267 85.4822 9.6 85.3889 9.852C85.2955 10.104 85.1695 10.3327 85.0109 10.538C84.8522 10.7433 84.6515 10.9067 84.4089 11.028C84.1755 11.1587 83.8909 11.224 83.5549 11.224C83.3029 11.224 83.0929 11.1867 82.9249 11.112C82.7662 11.0467 82.6355 10.958 82.5329 10.846C82.4395 10.734 82.3695 10.6127 82.3229 10.482C82.2762 10.342 82.2435 10.2067 82.2249 10.076C81.9355 10.3653 81.5855 10.5987 81.1749 10.776C80.7642 10.944 80.3209 11.028 79.8449 11.028C79.1449 11.028 78.6129 10.846 78.2489 10.482C77.8849 10.118 77.7029 9.64667 77.7029 9.068C77.7029 8.68533 77.7775 8.36333 77.9269 8.102C78.0855 7.84067 78.2862 7.63067 78.5289 7.472C78.7809 7.31333 79.0609 7.20133 79.3689 7.136C79.6862 7.06133 80.0035 7.024 80.3209 7.024C80.6942 7.024 81.0162 7.06133 81.2869 7.136C81.5575 7.20133 81.7629 7.26667 81.9029 7.332C81.9029 7.08 81.8795 6.84667 81.8329 6.632C81.7862 6.41733 81.7022 6.23533 81.5809 6.086C81.4595 5.93667 81.2962 5.82 81.0909 5.736C80.8855 5.652 80.6242 5.61 80.3069 5.61C79.9242 5.61 79.5742 5.666 79.2569 5.778C78.9395 5.89 78.6689 6.03933 78.4449 6.226L78.0809 5.232C78.7902 4.76533 79.5929 4.532 80.4889 4.532C81.0955 4.532 81.5669 4.62533 81.9029 4.812C82.2482 4.99867 82.5002 5.23667 82.6589 5.526C82.8269 5.806 82.9295 6.11867 82.9669 6.464C83.0042 6.80933 83.0229 7.14067 83.0229 7.458V8.802C83.0229 9.00733 83.0275 9.208 83.0369 9.404C83.0555 9.59067 83.0882 9.75867 83.1349 9.908C83.1815 10.048 83.2515 10.1647 83.3449 10.258C83.4382 10.342 83.5689 10.384 83.7369 10.384C83.9889 10.384 84.1895 10.2907 84.3389 10.104C84.4975 9.91733 84.6189 9.69333 84.7029 9.432C84.7962 9.16133 84.8569 8.88133 84.8849 8.592C84.9129 8.30267 84.9269 8.06 84.9269 7.864C84.9269 7.21067 84.8149 6.60867 84.5909 6.058C84.3762 5.498 84.0729 5.01733 83.6809 4.616C83.2889 4.20533 82.8175 3.888 82.2669 3.664C81.7162 3.43067 81.1049 3.314 80.4329 3.314C79.7702 3.314 79.1635 3.426 78.6129 3.65C78.0715 3.874 77.6002 4.18667 77.1989 4.588C76.8069 4.98 76.4989 5.45133 76.2749 6.002C76.0602 6.54333 75.9529 7.136 75.9529 7.78C75.9529 8.40533 76.0555 8.99333 76.2609 9.544C76.4662 10.0853 76.7555 10.5613 77.1289 10.972C77.5115 11.3733 77.9689 11.6907 78.5009 11.924C79.0329 12.1667 79.6255 12.288 80.2789 12.288C80.7269 12.288 81.1142 12.2367 81.4409 12.134C81.7675 12.0407 82.1082 11.9147 82.4629 11.756L82.6869 12.484C82.2949 12.6707 81.8935 12.8107 81.4829 12.904C81.0722 12.9973 80.6615 13.044 80.2509 13.044C79.5509 13.044 78.8929 12.918 78.2769 12.666C77.6609 12.414 77.1195 12.0547 76.6529 11.588C76.1955 11.1307 75.8315 10.58 75.5609 9.936C75.2995 9.28267 75.1689 8.564 75.1689 7.78C75.1689 6.94933 75.3135 6.212 75.6029 5.568C75.8922 4.91467 76.2795 4.36867 76.7649 3.93C77.2595 3.482 77.8289 3.14133 78.4729 2.908C79.1169 2.67467 79.7889 2.558 80.4889 2.558ZM81.1749 9.782C81.4269 9.66067 81.6089 9.51133 81.7209 9.334C81.8329 9.15667 81.8889 8.96067 81.8889 8.746V8.214C81.7582 8.16733 81.5529 8.10667 81.2729 8.032C80.9929 7.95733 80.6755 7.92 80.3209 7.92C79.8822 7.92 79.5229 8.004 79.2429 8.172C78.9629 8.34 78.8229 8.62467 78.8229 9.026C78.8229 9.34333 78.9209 9.59533 79.1169 9.782C79.3222 9.96867 79.6022 10.062 79.9569 10.062C80.1435 10.062 80.3489 10.0387 80.5729 9.992C80.7969 9.94533 80.9975 9.87533 81.1749 9.782ZM94.779 11H92.903V6.884C92.903 6.30533 92.7957 5.88067 92.581 5.61C92.3664 5.33 92.063 5.19 91.671 5.19C91.503 5.19 91.3257 5.22733 91.139 5.302C90.9524 5.37667 90.775 5.484 90.607 5.624C90.439 5.75467 90.285 5.91333 90.145 6.1C90.005 6.28667 89.9024 6.492 89.837 6.716V11H87.961V0.78H89.837V5.022C90.1077 4.546 90.4717 4.182 90.929 3.93C91.3957 3.66867 91.909 3.538 92.469 3.538C92.945 3.538 93.3324 3.622 93.631 3.79C93.9297 3.94867 94.163 4.16333 94.331 4.434C94.499 4.70467 94.6157 5.01267 94.681 5.358C94.7464 5.70333 94.779 6.058 94.779 6.422V11ZM100.498 11.14C99.9009 11.14 99.3642 11.0373 98.8882 10.832C98.4122 10.6267 98.0062 10.3513 97.6702 10.006C97.3436 9.65133 97.0916 9.24533 96.9142 8.788C96.7369 8.33067 96.6482 7.85 96.6482 7.346C96.6482 6.83267 96.7369 6.34733 96.9142 5.89C97.0916 5.43267 97.3436 5.03133 97.6702 4.686C98.0062 4.33133 98.4122 4.05133 98.8882 3.846C99.3642 3.64067 99.9009 3.538 100.498 3.538C101.096 3.538 101.628 3.64067 102.094 3.846C102.57 4.05133 102.972 4.33133 103.298 4.686C103.634 5.03133 103.891 5.43267 104.068 5.89C104.246 6.34733 104.334 6.83267 104.334 7.346C104.334 7.85 104.246 8.33067 104.068 8.788C103.891 9.24533 103.639 9.65133 103.312 10.006C102.986 10.3513 102.584 10.6267 102.108 10.832C101.632 11.0373 101.096 11.14 100.498 11.14ZM98.5802 7.346C98.5802 7.67267 98.6269 7.97133 98.7202 8.242C98.8229 8.50333 98.9582 8.732 99.1262 8.928C99.3036 9.124 99.5089 9.278 99.7422 9.39C99.9756 9.49267 100.228 9.544 100.498 9.544C100.769 9.544 101.021 9.49267 101.254 9.39C101.488 9.278 101.688 9.124 101.856 8.928C102.034 8.732 102.169 8.49867 102.262 8.228C102.365 7.95733 102.416 7.65867 102.416 7.332C102.416 7.01467 102.365 6.72067 102.262 6.45C102.169 6.17933 102.034 5.946 101.856 5.75C101.688 5.554 101.488 5.40467 101.254 5.302C101.021 5.19 100.769 5.134 100.498 5.134C100.228 5.134 99.9756 5.19 99.7422 5.302C99.5089 5.414 99.3036 5.568 99.1262 5.764C98.9582 5.96 98.8229 6.19333 98.7202 6.464C98.6269 6.73467 98.5802 7.02867 98.5802 7.346ZM108.54 11.14C107.784 11.14 107.21 10.8973 106.818 10.412C106.426 9.92667 106.23 9.208 106.23 8.256V3.664H108.106V7.85C108.106 8.97933 108.512 9.544 109.324 9.544C109.688 9.544 110.038 9.43667 110.374 9.222C110.72 8.998 111 8.662 111.214 8.214V3.664H113.09V8.844C113.09 9.04 113.123 9.18 113.188 9.264C113.263 9.348 113.38 9.39467 113.538 9.404V11C113.352 11.0373 113.193 11.0607 113.062 11.07C112.941 11.0793 112.829 11.084 112.726 11.084C112.39 11.084 112.115 11.0093 111.9 10.86C111.695 10.7013 111.574 10.4867 111.536 10.216L111.494 9.628C111.168 10.132 110.748 10.51 110.234 10.762C109.721 11.014 109.156 11.14 108.54 11.14ZM118.427 11.14C117.811 11.14 117.209 11.042 116.621 10.846C116.033 10.65 115.529 10.37 115.109 10.006L115.809 8.83C116.257 9.14733 116.691 9.39 117.111 9.558C117.54 9.71667 117.965 9.796 118.385 9.796C118.758 9.796 119.052 9.726 119.267 9.586C119.481 9.446 119.589 9.24533 119.589 8.984C119.589 8.72267 119.463 8.53133 119.211 8.41C118.959 8.28867 118.548 8.14867 117.979 7.99C117.503 7.85933 117.097 7.73333 116.761 7.612C116.425 7.49067 116.154 7.35533 115.949 7.206C115.743 7.04733 115.594 6.87 115.501 6.674C115.407 6.46867 115.361 6.226 115.361 5.946C115.361 5.57267 115.431 5.23667 115.571 4.938C115.72 4.63933 115.925 4.38733 116.187 4.182C116.448 3.96733 116.751 3.804 117.097 3.692C117.451 3.58 117.834 3.524 118.245 3.524C118.795 3.524 119.309 3.60333 119.785 3.762C120.27 3.92067 120.713 4.17733 121.115 4.532L120.359 5.666C119.985 5.386 119.621 5.18067 119.267 5.05C118.921 4.91933 118.576 4.854 118.231 4.854C117.913 4.854 117.647 4.91933 117.433 5.05C117.218 5.18067 117.111 5.39067 117.111 5.68C117.111 5.81067 117.134 5.918 117.181 6.002C117.237 6.086 117.321 6.16067 117.433 6.226C117.545 6.29133 117.689 6.35667 117.867 6.422C118.053 6.478 118.282 6.53867 118.553 6.604C119.057 6.73467 119.486 6.86533 119.841 6.996C120.205 7.12667 120.499 7.276 120.723 7.444C120.956 7.612 121.124 7.808 121.227 8.032C121.339 8.24667 121.395 8.508 121.395 8.816C121.395 9.53467 121.129 10.104 120.597 10.524C120.065 10.9347 119.341 11.14 118.427 11.14ZM126.716 11.14C126.128 11.14 125.596 11.042 125.12 10.846C124.644 10.6407 124.238 10.3653 123.902 10.02C123.566 9.67467 123.304 9.27333 123.118 8.816C122.94 8.35867 122.852 7.878 122.852 7.374C122.852 6.85133 122.94 6.36133 123.118 5.904C123.295 5.43733 123.552 5.03133 123.888 4.686C124.224 4.33133 124.63 4.05133 125.106 3.846C125.591 3.64067 126.132 3.538 126.73 3.538C127.327 3.538 127.859 3.64067 128.326 3.846C128.802 4.05133 129.203 4.32667 129.53 4.672C129.866 5.01733 130.118 5.41867 130.286 5.876C130.463 6.33333 130.552 6.80933 130.552 7.304C130.552 7.42533 130.547 7.542 130.538 7.654C130.538 7.766 130.528 7.85933 130.51 7.934H124.84C124.868 8.22333 124.938 8.48 125.05 8.704C125.162 8.928 125.306 9.11933 125.484 9.278C125.661 9.43667 125.862 9.558 126.086 9.642C126.31 9.726 126.543 9.768 126.786 9.768C127.159 9.768 127.509 9.67933 127.836 9.502C128.172 9.31533 128.4 9.07267 128.522 8.774L130.132 9.222C129.861 9.782 129.427 10.244 128.83 10.608C128.242 10.9627 127.537 11.14 126.716 11.14ZM128.62 6.716C128.573 6.16533 128.368 5.72667 128.004 5.4C127.649 5.064 127.215 4.896 126.702 4.896C126.45 4.896 126.212 4.94267 125.988 5.036C125.773 5.12 125.582 5.24133 125.414 5.4C125.246 5.55867 125.106 5.75 124.994 5.974C124.891 6.198 124.83 6.44533 124.812 6.716H128.62ZM134.177 11L131.475 3.664H133.407L135.269 9.474L137.145 3.664H138.909L136.207 11H134.177ZM140.587 11V3.664H142.463V11H140.587ZM140.587 2.642V0.78H142.463V2.642H140.587ZM149.251 11.14C148.673 11.14 148.169 11.014 147.739 10.762C147.31 10.5007 146.974 10.1507 146.731 9.712V13.982H144.855V3.664H146.493V4.924C146.764 4.49467 147.114 4.15867 147.543 3.916C147.973 3.664 148.467 3.538 149.027 3.538C149.522 3.538 149.979 3.64067 150.399 3.846C150.819 4.042 151.179 4.31267 151.477 4.658C151.785 4.994 152.023 5.39533 152.191 5.862C152.369 6.31933 152.457 6.80467 152.457 7.318C152.457 7.85 152.378 8.34933 152.219 8.816C152.061 9.28267 151.837 9.68867 151.547 10.034C151.267 10.3793 150.931 10.65 150.539 10.846C150.147 11.042 149.718 11.14 149.251 11.14ZM148.621 9.544C148.901 9.544 149.158 9.48333 149.391 9.362C149.634 9.24067 149.839 9.07733 150.007 8.872C150.175 8.66667 150.306 8.42867 150.399 8.158C150.493 7.88733 150.539 7.60733 150.539 7.318C150.539 7.01 150.488 6.72533 150.385 6.464C150.283 6.19333 150.138 5.96 149.951 5.764C149.774 5.568 149.559 5.414 149.307 5.302C149.065 5.19 148.799 5.134 148.509 5.134C148.332 5.134 148.15 5.16667 147.963 5.232C147.777 5.288 147.604 5.372 147.445 5.484C147.287 5.596 147.142 5.72667 147.011 5.876C146.89 6.02533 146.797 6.18867 146.731 6.366V8.088C146.899 8.508 147.156 8.858 147.501 9.138C147.847 9.40867 148.22 9.544 148.621 9.544ZM154.386 11V8.984H155.926V11H154.386ZM162.641 5.288C162.071 5.29733 161.563 5.40933 161.115 5.624C160.667 5.82933 160.345 6.142 160.149 6.562V11H158.273V3.664H159.995V5.232C160.125 4.98 160.279 4.756 160.457 4.56C160.634 4.35467 160.825 4.17733 161.031 4.028C161.236 3.87867 161.441 3.76667 161.647 3.692C161.861 3.608 162.067 3.566 162.263 3.566C162.365 3.566 162.44 3.566 162.487 3.566C162.543 3.566 162.594 3.57067 162.641 3.58V5.288ZM166.627 11.14C165.871 11.14 165.297 10.8973 164.905 10.412C164.513 9.92667 164.317 9.208 164.317 8.256V3.664H166.193V7.85C166.193 8.97933 166.599 9.544 167.411 9.544C167.775 9.544 168.125 9.43667 168.461 9.222C168.806 8.998 169.086 8.662 169.301 8.214V3.664H171.177V8.844C171.177 9.04 171.209 9.18 171.275 9.264C171.349 9.348 171.466 9.39467 171.625 9.404V11C171.438 11.0373 171.279 11.0607 171.149 11.07C171.027 11.0793 170.915 11.084 170.813 11.084C170.477 11.084 170.201 11.0093 169.987 10.86C169.781 10.7013 169.66 10.4867 169.623 10.216L169.581 9.628C169.254 10.132 168.834 10.51 168.321 10.762C167.807 11.014 167.243 11.14 166.627 11.14Z" fill="#D4C17F"/>
</svg>
